<svg version="1.1" id="Layer_1" xmlns="http://www.w3.org/2000/svg" xmlns:xlink="http://www.w3.org/1999/xlink" x="0px" y="0px"
	 width="100%" viewBox="0 0 352 352" enable-background="new 0 0 352 352" xml:space="preserve">
<path fill="#000000" opacity="1.000000" stroke="none" 
	d="
M201.395020,270.343781 
	C194.720840,279.707397 188.248611,288.773804 181.935333,297.617523 
	C179.339188,297.606445 178.770782,295.799408 177.856522,294.520477 
	C145.017868,248.582901 112.411743,202.476349 79.176239,156.827972 
	C73.813667,149.462570 74.604820,142.822601 76.349594,135.347778 
	C83.945389,102.806473 105.245987,82.944954 135.744995,72.006165 
	C174.393280,58.144543 211.809326,61.505905 247.235504,82.110939 
	C270.617126,95.710464 283.284485,116.940704 287.266327,143.514206 
	C287.833496,147.299225 286.927551,150.462738 284.595245,153.715408 
	C256.837646,192.426819 229.238022,231.251541 201.395020,270.343781 
M167.477112,250.123627 
	C170.980652,259.404480 174.484192,268.685333 178.333038,278.880890 
	C178.544296,277.401855 178.661331,276.964447 178.661499,276.527008 
	C178.674210,243.881577 178.678696,211.236145 178.681320,178.590714 
	C178.682190,167.764236 178.662460,156.937729 178.685059,146.111313 
	C178.689743,143.868652 178.641785,141.789703 176.086716,140.747604 
	C161.179657,134.667511 146.648407,134.525223 132.582687,143.247864 
	C129.529434,145.141296 128.949265,147.271545 130.262939,150.744415 
	C142.686249,183.587311 154.940720,216.494049 167.477112,250.123627 
M185.220703,274.408264 
	C188.447006,265.846283 191.690613,257.290802 194.896530,248.721207 
	C207.080429,216.153137 219.193451,183.558289 231.502319,151.037567 
	C233.049622,146.949524 232.226318,144.781723 228.475830,142.621292 
	C215.755798,135.294006 202.695831,134.894394 189.036438,139.486664 
	C184.738739,140.931534 183.190674,143.089951 183.213364,147.760620 
	C183.409805,188.217575 183.328400,228.675888 183.329712,269.133789 
	C183.329803,271.831787 183.329727,274.529785 183.329727,277.227753 
	C183.604324,277.244232 183.878906,277.260712 184.153503,277.277191 
	C184.426285,276.520508 184.699081,275.763794 185.220703,274.408264 
M124.137657,211.393967 
	C139.989624,233.511795 155.841583,255.629623 171.693558,277.747437 
	C172.042465,276.302032 171.740814,275.219727 171.349991,274.170654 
	C156.019379,233.017517 140.655869,191.876587 125.390198,150.699387 
	C124.172035,147.413559 122.216522,145.347870 118.871185,144.534683 
	C116.288513,143.906891 113.733788,143.032669 111.112595,142.717712 
	C100.194908,141.405823 89.724030,142.828781 79.074799,148.237717 
	C94.196716,169.434952 108.956474,190.124527 124.137657,211.393967 
M201.169083,245.557266 
	C197.240219,256.134338 193.311356,266.711426 189.382492,277.288483 
	C189.670258,277.415436 189.958023,277.542389 190.245773,277.669342 
	C221.061935,234.579041 251.878098,191.488754 282.739655,148.334991 
	C272.319489,142.302979 255.557816,140.737732 244.744659,143.900574 
	C239.917648,145.312454 237.398956,148.049301 235.692963,152.692886 
	C224.393936,183.447769 212.852646,214.113617 201.169083,245.557266 
z"/>
</svg>